<svg xmlns="http://www.w3.org/2000/svg" xmlns:xlink="http://www.w3.org/1999/xlink" width="400" zoomAndPan="magnify" viewBox="0 0 300 149.999998" height="200" preserveAspectRatio="xMidYMid meet" version="1.2"><defs><clipPath id="6b56667546"><path d="M 90.34375 65.585938 L 208.855469 65.585938 L 208.855469 80.878906 L 90.34375 80.878906 Z M 90.34375 65.585938 "/></clipPath><clipPath id="b8619ac90a"><path d="M 98.015625 65.585938 L 201.183594 65.585938 C 203.21875 65.585938 205.167969 66.394531 206.609375 67.828125 C 208.046875 69.261719 208.855469 71.207031 208.855469 73.234375 C 208.855469 75.261719 208.046875 77.207031 206.609375 78.640625 C 205.167969 80.074219 203.21875 80.878906 201.183594 80.878906 L 98.015625 80.878906 C 95.980469 80.878906 94.03125 80.074219 92.59375 78.640625 C 91.152344 77.207031 90.34375 75.261719 90.34375 73.234375 C 90.34375 71.207031 91.152344 69.261719 92.59375 67.828125 C 94.03125 66.394531 95.980469 65.585938 98.015625 65.585938 Z M 98.015625 65.585938 "/></clipPath><clipPath id="3bc39a848e"><path d="M 203 73 L 211 73 L 211 83 L 203 83 Z M 203 73 "/></clipPath><clipPath id="056f064a8b"><path d="M 203.097656 73.980469 L 209.121094 72.921875 L 210.664062 81.707031 L 204.640625 82.765625 Z M 203.097656 73.980469 "/></clipPath><clipPath id="877c0727a7"><path d="M 203.097656 73.980469 L 209.121094 72.921875 L 210.664062 81.707031 L 204.640625 82.765625 Z M 203.097656 73.980469 "/></clipPath><clipPath id="d1eeef7424"><path d="M 204 76 L 212 76 L 212 85 L 204 85 Z M 204 76 "/></clipPath><clipPath id="d25e76a562"><path d="M 204.578125 76.15625 L 210.601562 75.097656 L 212.148438 83.882812 L 206.121094 84.941406 Z M 204.578125 76.15625 "/></clipPath><clipPath id="0214a9eed5"><path d="M 204.578125 76.15625 L 210.601562 75.097656 L 212.148438 83.882812 L 206.121094 84.941406 Z M 204.578125 76.15625 "/></clipPath><clipPath id="ca3c38cd7c"><path d="M 93.9375 68.34375 L 103.875 68.34375 L 103.875 78.285156 L 93.9375 78.285156 Z M 93.9375 68.34375 "/></clipPath></defs><g id="c371a43676"><g clip-rule="nonzero" clip-path="url(#6b56667546)"><g clip-rule="nonzero" clip-path="url(#b8619ac90a)"><path style="fill:none;stroke-width:5.885575;stroke-linecap:butt;stroke-linejoin:miter;stroke:#2ca988;stroke-opacity:1;stroke-miterlimit:4;" d="M 30.103214 -0.00660908 L 434.986729 -0.00660908 C 442.973716 -0.00660908 450.623441 3.177651 456.280251 8.823174 C 461.921731 14.468698 465.095064 22.129381 465.095064 30.113105 C 465.095064 38.096829 461.921731 45.757513 456.280251 51.403036 C 450.623441 57.04856 442.973716 60.217437 434.986729 60.217437 L 30.103214 60.217437 C 22.116227 60.217437 14.466502 57.04856 8.825022 51.403036 C 3.168212 45.757513 -0.00512082 38.096829 -0.00512082 30.113105 C -0.00512082 22.129381 3.168212 14.468698 8.825022 8.823174 C 14.466502 3.177651 22.116227 -0.00660908 30.103214 -0.00660908 Z M 30.103214 -0.00660908 " transform="matrix(0.254809,0.000000000000000022,-0.000000000000000022,0.253935,90.345055,65.587616)"/></g></g><g clip-rule="nonzero" clip-path="url(#3bc39a848e)"><g clip-rule="nonzero" clip-path="url(#056f064a8b)"><g clip-rule="nonzero" clip-path="url(#877c0727a7)"><path style=" stroke:none;fill-rule:nonzero;fill:#ffffff;fill-opacity:1;" d="M 209.976562 78.195312 L 203.390625 73.988281 C 203.332031 73.949219 203.257812 73.953125 203.203125 73.988281 C 203.144531 74.027344 203.117188 74.09375 203.128906 74.160156 L 204.457031 81.71875 C 204.46875 81.789062 204.523438 81.84375 204.589844 81.859375 C 204.660156 81.871094 204.730469 81.84375 204.769531 81.785156 L 206.121094 79.746094 L 207.804688 82.042969 C 207.84375 82.097656 207.910156 82.125 207.972656 82.113281 C 207.996094 82.109375 208.015625 82.101562 208.035156 82.085938 L 209.167969 81.339844 C 209.210938 81.3125 209.234375 81.269531 209.246094 81.222656 C 209.253906 81.175781 209.242188 81.128906 209.210938 81.089844 L 207.554688 78.921875 L 209.914062 78.507812 C 209.984375 78.496094 210.039062 78.441406 210.050781 78.375 C 210.066406 78.304688 210.035156 78.234375 209.976562 78.195312 Z M 209.976562 78.195312 "/></g></g></g><g clip-rule="nonzero" clip-path="url(#d1eeef7424)"><g clip-rule="nonzero" clip-path="url(#d25e76a562)"><g clip-rule="nonzero" clip-path="url(#0214a9eed5)"><path style=" stroke:none;fill-rule:nonzero;fill:#2ca988;fill-opacity:1;" d="M 211.457031 80.371094 L 204.871094 76.164062 C 204.8125 76.128906 204.742188 76.128906 204.683594 76.164062 C 204.628906 76.203125 204.597656 76.269531 204.609375 76.335938 L 205.9375 83.894531 C 205.949219 83.964844 206.003906 84.019531 206.070312 84.035156 C 206.140625 84.046875 206.210938 84.019531 206.25 83.960938 L 207.601562 81.921875 L 209.285156 84.222656 C 209.324219 84.273438 209.390625 84.300781 209.453125 84.289062 C 209.476562 84.285156 209.496094 84.277344 209.515625 84.261719 L 210.652344 83.515625 C 210.691406 83.488281 210.71875 83.445312 210.726562 83.398438 C 210.734375 83.351562 210.722656 83.304688 210.691406 83.265625 L 209.035156 81.097656 L 211.394531 80.683594 C 211.464844 80.671875 211.519531 80.617188 211.535156 80.550781 C 211.546875 80.480469 211.515625 80.410156 211.457031 80.371094 Z M 211.457031 80.371094 "/></g></g></g><g style="fill:#12315c;fill-opacity:1;"><g transform="translate(107.947307, 76.008633)"><path style="stroke:none" d="M 6.34375 -4.46875 L 6.96875 -4.46875 L 5.4375 0 L 4.796875 0 L 3.546875 -3.671875 L 2.3125 0 L 1.65625 0 L 0.109375 -4.46875 L 0.765625 -4.46875 L 2 -0.71875 L 3.265625 -4.46875 L 3.828125 -4.46875 L 5.09375 -0.6875 Z M 6.34375 -4.46875 "/></g></g><g style="fill:#12315c;fill-opacity:1;"><g transform="translate(115.040009, 76.008633)"><path style="stroke:none" d="M 6.34375 -4.46875 L 6.96875 -4.46875 L 5.4375 0 L 4.796875 0 L 3.546875 -3.671875 L 2.3125 0 L 1.65625 0 L 0.109375 -4.46875 L 0.765625 -4.46875 L 2 -0.71875 L 3.265625 -4.46875 L 3.828125 -4.46875 L 5.09375 -0.6875 Z M 6.34375 -4.46875 "/></g></g><g style="fill:#12315c;fill-opacity:1;"><g transform="translate(122.132712, 76.008633)"><path style="stroke:none" d="M 6.34375 -4.46875 L 6.96875 -4.46875 L 5.4375 0 L 4.796875 0 L 3.546875 -3.671875 L 2.3125 0 L 1.65625 0 L 0.109375 -4.46875 L 0.765625 -4.46875 L 2 -0.71875 L 3.265625 -4.46875 L 3.828125 -4.46875 L 5.09375 -0.6875 Z M 6.34375 -4.46875 "/></g></g><g style="fill:#12315c;fill-opacity:1;"><g transform="translate(129.225415, 76.008633)"><path style="stroke:none" d="M 0.875 0.09375 C 0.757812 0.09375 0.660156 0.046875 0.578125 -0.046875 C 0.484375 -0.128906 0.4375 -0.226562 0.4375 -0.34375 C 0.4375 -0.457031 0.484375 -0.5625 0.578125 -0.65625 C 0.660156 -0.738281 0.757812 -0.78125 0.875 -0.78125 C 0.988281 -0.78125 1.09375 -0.738281 1.1875 -0.65625 C 1.269531 -0.5625 1.3125 -0.457031 1.3125 -0.34375 C 1.3125 -0.226562 1.269531 -0.128906 1.1875 -0.046875 C 1.09375 0.046875 0.988281 0.09375 0.875 0.09375 Z M 0.875 0.09375 "/></g></g><g style="fill:#12315c;fill-opacity:1;"><g transform="translate(130.978469, 76.008633)"><path style="stroke:none" d="M 2.59375 -4.5625 C 3.039062 -4.5625 3.425781 -4.398438 3.75 -4.078125 C 4.0625 -3.765625 4.21875 -3.382812 4.21875 -2.9375 L 4.21875 0 L 3.625 0 L 3.625 -2.90625 C 3.625 -3.21875 3.519531 -3.476562 3.3125 -3.6875 C 3.09375 -3.894531 2.832031 -4 2.53125 -4 C 2.21875 -4 1.957031 -3.898438 1.75 -3.703125 C 1.53125 -3.492188 1.414062 -3.238281 1.40625 -2.9375 L 1.40625 0 L 0.828125 0 L 0.828125 -4.46875 L 1.40625 -4.46875 L 1.40625 -4.046875 C 1.726562 -4.390625 2.125 -4.5625 2.59375 -4.5625 Z M 2.59375 -4.5625 "/></g></g><g style="fill:#12315c;fill-opacity:1;"><g transform="translate(135.942468, 76.008633)"><path style="stroke:none" d="M 2.34375 0.09375 C 1.851562 0.09375 1.453125 -0.0625 1.140625 -0.375 C 0.828125 -0.6875 0.671875 -1.09375 0.671875 -1.59375 L 0.671875 -4.46875 L 1.265625 -4.46875 L 1.265625 -1.65625 C 1.265625 -1.3125 1.367188 -1.03125 1.578125 -0.8125 C 1.773438 -0.59375 2.03125 -0.484375 2.34375 -0.484375 C 2.664062 -0.484375 2.929688 -0.59375 3.140625 -0.8125 C 3.335938 -1.03125 3.4375 -1.3125 3.4375 -1.65625 L 3.4375 -4.46875 L 4.015625 -4.46875 L 4.015625 -1.59375 C 4.015625 -1.09375 3.863281 -0.6875 3.5625 -0.375 C 3.25 -0.0625 2.84375 0.09375 2.34375 0.09375 Z M 2.34375 0.09375 "/></g></g><g style="fill:#12315c;fill-opacity:1;"><g transform="translate(140.638144, 76.008633)"><path style="stroke:none" d="M 5.109375 -4.5625 C 5.554688 -4.5625 5.9375 -4.398438 6.25 -4.078125 C 6.570312 -3.742188 6.734375 -3.347656 6.734375 -2.890625 L 6.734375 0 L 6.15625 0 L 6.15625 -2.890625 C 6.15625 -3.191406 6.050781 -3.453125 5.84375 -3.671875 C 5.644531 -3.878906 5.398438 -3.984375 5.109375 -3.984375 C 4.828125 -3.984375 4.582031 -3.878906 4.375 -3.671875 C 4.175781 -3.453125 4.078125 -3.191406 4.078125 -2.890625 L 4.078125 0 L 3.484375 0 L 3.484375 -2.890625 C 3.484375 -3.191406 3.382812 -3.453125 3.1875 -3.671875 C 2.976562 -3.878906 2.734375 -3.984375 2.453125 -3.984375 C 2.160156 -3.984375 1.914062 -3.878906 1.71875 -3.671875 C 1.507812 -3.460938 1.40625 -3.203125 1.40625 -2.890625 L 1.40625 0 L 0.828125 0 L 0.828125 -4.46875 L 1.40625 -4.46875 L 1.40625 -4 C 1.695312 -4.375 2.066406 -4.5625 2.515625 -4.5625 C 2.753906 -4.5625 2.988281 -4.5 3.21875 -4.375 C 3.445312 -4.238281 3.632812 -4.0625 3.78125 -3.84375 C 4.101562 -4.320312 4.546875 -4.5625 5.109375 -4.5625 Z M 5.109375 -4.5625 "/></g></g><g style="fill:#12315c;fill-opacity:1;"><g transform="translate(148.115447, 76.008633)"><path style="stroke:none" d="M 5.140625 -2.28125 L 5.140625 -2.15625 L 1.09375 -2.15625 C 1.113281 -1.6875 1.289062 -1.289062 1.625 -0.96875 C 1.957031 -0.644531 2.359375 -0.484375 2.828125 -0.484375 C 3.117188 -0.484375 3.390625 -0.554688 3.640625 -0.703125 C 3.890625 -0.835938 4.097656 -1.023438 4.265625 -1.265625 L 4.796875 -1.03125 C 4.597656 -0.6875 4.328125 -0.414062 3.984375 -0.21875 C 3.628906 -0.0078125 3.242188 0.09375 2.828125 0.09375 C 2.191406 0.09375 1.644531 -0.132812 1.1875 -0.59375 C 0.726562 -1.039062 0.5 -1.585938 0.5 -2.234375 C 0.5 -2.878906 0.726562 -3.425781 1.1875 -3.875 C 1.644531 -4.332031 2.191406 -4.5625 2.828125 -4.5625 C 3.460938 -4.5625 4.003906 -4.34375 4.453125 -3.90625 C 4.890625 -3.46875 5.117188 -2.925781 5.140625 -2.28125 Z M 2.828125 -3.984375 C 2.429688 -3.984375 2.078125 -3.863281 1.765625 -3.625 C 1.460938 -3.382812 1.257812 -3.078125 1.15625 -2.703125 L 4.484375 -2.703125 C 4.378906 -3.066406 4.175781 -3.375 3.875 -3.625 C 3.570312 -3.863281 3.222656 -3.984375 2.828125 -3.984375 Z M 2.828125 -3.984375 "/></g></g><g style="fill:#12315c;fill-opacity:1;"><g transform="translate(153.768149, 76.008633)"><path style="stroke:none" d="M 2.65625 -4.5625 C 2.8125 -4.5625 2.96875 -4.53125 3.125 -4.46875 L 3.125 -3.875 C 2.957031 -3.945312 2.800781 -3.984375 2.65625 -3.984375 C 2.3125 -3.984375 2.019531 -3.84375 1.78125 -3.5625 C 1.53125 -3.269531 1.40625 -2.914062 1.40625 -2.5 L 1.40625 0 L 0.828125 0 L 0.828125 -4.46875 L 1.40625 -4.46875 L 1.40625 -3.703125 C 1.675781 -4.273438 2.09375 -4.5625 2.65625 -4.5625 Z M 2.65625 -4.5625 "/></g></g><g style="fill:#12315c;fill-opacity:1;"><g transform="translate(157.023812, 76.008633)"><path style="stroke:none" d="M 1.140625 -5.921875 C 1.015625 -5.921875 0.910156 -5.960938 0.828125 -6.046875 C 0.742188 -6.128906 0.703125 -6.234375 0.703125 -6.359375 C 0.703125 -6.484375 0.742188 -6.585938 0.828125 -6.671875 C 0.910156 -6.753906 1.015625 -6.796875 1.140625 -6.796875 C 1.253906 -6.796875 1.359375 -6.753906 1.453125 -6.671875 C 1.535156 -6.585938 1.578125 -6.484375 1.578125 -6.359375 C 1.578125 -6.234375 1.535156 -6.128906 1.453125 -6.046875 C 1.359375 -5.960938 1.253906 -5.921875 1.140625 -5.921875 Z M 0.84375 0 L 0.84375 -4.46875 L 1.421875 -4.46875 L 1.421875 0 Z M 0.84375 0 "/></g></g><g style="fill:#12315c;fill-opacity:1;"><g transform="translate(159.286683, 76.008633)"><path style="stroke:none" d="M 4.328125 0 L 3.515625 0 L 1.40625 -2.328125 L 1.40625 0 L 0.828125 0 L 0.828125 -6.703125 L 1.40625 -6.703125 L 1.40625 -2.640625 L 3.359375 -4.46875 L 4.140625 -4.46875 L 2.03125 -2.484375 Z M 4.328125 0 "/></g></g><g style="fill:#12315c;fill-opacity:1;"><g transform="translate(163.678257, 76.008633)"><path style="stroke:none" d="M 2.65625 -4.5625 C 2.8125 -4.5625 2.96875 -4.53125 3.125 -4.46875 L 3.125 -3.875 C 2.957031 -3.945312 2.800781 -3.984375 2.65625 -3.984375 C 2.3125 -3.984375 2.019531 -3.84375 1.78125 -3.5625 C 1.53125 -3.269531 1.40625 -2.914062 1.40625 -2.5 L 1.40625 0 L 0.828125 0 L 0.828125 -4.46875 L 1.40625 -4.46875 L 1.40625 -3.703125 C 1.675781 -4.273438 2.09375 -4.5625 2.65625 -4.5625 Z M 2.65625 -4.5625 "/></g></g><g style="fill:#12315c;fill-opacity:1;"><g transform="translate(166.933921, 76.008633)"><path style="stroke:none" d="M 4.5625 -4.46875 L 5.140625 -4.46875 L 5.140625 0 L 4.5625 0 L 4.5625 -0.796875 C 4.144531 -0.203125 3.546875 0.09375 2.765625 0.09375 C 2.148438 0.09375 1.617188 -0.132812 1.171875 -0.59375 C 0.722656 -1.050781 0.5 -1.597656 0.5 -2.234375 C 0.5 -2.867188 0.722656 -3.414062 1.171875 -3.875 C 1.617188 -4.332031 2.148438 -4.5625 2.765625 -4.5625 C 3.546875 -4.5625 4.144531 -4.265625 4.5625 -3.671875 Z M 2.828125 -0.484375 C 3.304688 -0.484375 3.71875 -0.65625 4.0625 -1 C 4.394531 -1.34375 4.5625 -1.753906 4.5625 -2.234375 C 4.5625 -2.710938 4.394531 -3.125 4.0625 -3.46875 C 3.71875 -3.8125 3.304688 -3.984375 2.828125 -3.984375 C 2.347656 -3.984375 1.9375 -3.8125 1.59375 -3.46875 C 1.257812 -3.125 1.09375 -2.710938 1.09375 -2.234375 C 1.09375 -1.753906 1.257812 -1.34375 1.59375 -1 C 1.9375 -0.65625 2.347656 -0.484375 2.828125 -0.484375 Z M 2.828125 -0.484375 "/></g></g><g style="fill:#12315c;fill-opacity:1;"><g transform="translate(172.917553, 76.008633)"><path style="stroke:none" d="M 2.890625 -4.46875 L 2.890625 -3.890625 L 1.671875 -3.890625 L 1.671875 0 L 1.09375 0 L 1.09375 -3.890625 L 0.34375 -3.890625 L 0.34375 -4.46875 L 1.09375 -4.46875 L 1.09375 -5.53125 C 1.09375 -5.914062 1.207031 -6.222656 1.4375 -6.453125 C 1.65625 -6.679688 1.945312 -6.796875 2.3125 -6.796875 C 2.5625 -6.796875 2.75 -6.75 2.875 -6.65625 L 2.875 -6.0625 C 2.71875 -6.175781 2.550781 -6.234375 2.375 -6.234375 C 2.164062 -6.234375 2 -6.160156 1.875 -6.015625 C 1.738281 -5.867188 1.671875 -5.679688 1.671875 -5.453125 L 1.671875 -4.46875 Z M 2.890625 -4.46875 "/></g></g><g style="fill:#12315c;fill-opacity:1;"><g transform="translate(175.958563, 76.008633)"><path style="stroke:none" d="M 2.78125 -4.46875 L 2.78125 -3.921875 L 1.8125 -3.921875 L 1.8125 0 L 1.21875 0 L 1.21875 -3.921875 L 0.234375 -3.921875 L 0.234375 -4.46875 L 1.21875 -4.46875 L 1.21875 -6.078125 L 1.8125 -6.078125 L 1.8125 -4.46875 Z M 2.78125 -4.46875 "/></g></g><g style="fill:#12315c;fill-opacity:1;"><g transform="translate(178.972733, 76.008633)"><path style="stroke:none" d="M 0.875 0.09375 C 0.757812 0.09375 0.660156 0.046875 0.578125 -0.046875 C 0.484375 -0.128906 0.4375 -0.226562 0.4375 -0.34375 C 0.4375 -0.457031 0.484375 -0.5625 0.578125 -0.65625 C 0.660156 -0.738281 0.757812 -0.78125 0.875 -0.78125 C 0.988281 -0.78125 1.09375 -0.738281 1.1875 -0.65625 C 1.269531 -0.5625 1.3125 -0.457031 1.3125 -0.34375 C 1.3125 -0.226562 1.269531 -0.128906 1.1875 -0.046875 C 1.09375 0.046875 0.988281 0.09375 0.875 0.09375 Z M 0.875 0.09375 "/></g></g><g style="fill:#12315c;fill-opacity:1;"><g transform="translate(180.725787, 76.008633)"><path style="stroke:none" d="M 2.828125 0.09375 C 2.191406 0.09375 1.644531 -0.132812 1.1875 -0.59375 C 0.726562 -1.039062 0.5 -1.585938 0.5 -2.234375 C 0.5 -2.878906 0.726562 -3.425781 1.1875 -3.875 C 1.644531 -4.332031 2.191406 -4.5625 2.828125 -4.5625 C 3.285156 -4.5625 3.703125 -4.441406 4.078125 -4.203125 C 4.453125 -3.953125 4.738281 -3.628906 4.9375 -3.234375 L 4.390625 -2.984375 C 4.242188 -3.285156 4.035156 -3.523438 3.765625 -3.703125 C 3.484375 -3.890625 3.171875 -3.984375 2.828125 -3.984375 C 2.335938 -3.984375 1.925781 -3.816406 1.59375 -3.484375 C 1.257812 -3.140625 1.09375 -2.722656 1.09375 -2.234375 C 1.09375 -1.742188 1.257812 -1.332031 1.59375 -1 C 1.925781 -0.65625 2.335938 -0.484375 2.828125 -0.484375 C 3.171875 -0.484375 3.484375 -0.578125 3.765625 -0.765625 C 4.035156 -0.941406 4.242188 -1.179688 4.390625 -1.484375 L 4.9375 -1.234375 C 4.738281 -0.835938 4.453125 -0.519531 4.078125 -0.28125 C 3.703125 -0.03125 3.285156 0.09375 2.828125 0.09375 Z M 2.828125 0.09375 "/></g></g><g style="fill:#12315c;fill-opacity:1;"><g transform="translate(185.984938, 76.008633)"><path style="stroke:none" d="M 2.828125 0.09375 C 2.191406 0.09375 1.644531 -0.132812 1.1875 -0.59375 C 0.726562 -1.039062 0.5 -1.585938 0.5 -2.234375 C 0.5 -2.878906 0.726562 -3.425781 1.1875 -3.875 C 1.644531 -4.332031 2.191406 -4.5625 2.828125 -4.5625 C 3.472656 -4.5625 4.019531 -4.332031 4.46875 -3.875 C 4.914062 -3.425781 5.140625 -2.878906 5.140625 -2.234375 C 5.140625 -1.585938 4.914062 -1.039062 4.46875 -0.59375 C 4.019531 -0.132812 3.472656 0.09375 2.828125 0.09375 Z M 2.828125 -0.484375 C 3.304688 -0.484375 3.71875 -0.65625 4.0625 -1 C 4.394531 -1.34375 4.5625 -1.753906 4.5625 -2.234375 C 4.5625 -2.710938 4.394531 -3.125 4.0625 -3.46875 C 3.71875 -3.8125 3.304688 -3.984375 2.828125 -3.984375 C 2.335938 -3.984375 1.925781 -3.8125 1.59375 -3.46875 C 1.257812 -3.125 1.09375 -2.710938 1.09375 -2.234375 C 1.09375 -1.753906 1.257812 -1.34375 1.59375 -1 C 1.925781 -0.65625 2.335938 -0.484375 2.828125 -0.484375 Z M 2.828125 -0.484375 "/></g></g><g style="fill:#12315c;fill-opacity:1;"><g transform="translate(191.646578, 76.008633)"><path style="stroke:none" d="M 5.109375 -4.5625 C 5.554688 -4.5625 5.9375 -4.398438 6.25 -4.078125 C 6.570312 -3.742188 6.734375 -3.347656 6.734375 -2.890625 L 6.734375 0 L 6.15625 0 L 6.15625 -2.890625 C 6.15625 -3.191406 6.050781 -3.453125 5.84375 -3.671875 C 5.644531 -3.878906 5.398438 -3.984375 5.109375 -3.984375 C 4.828125 -3.984375 4.582031 -3.878906 4.375 -3.671875 C 4.175781 -3.453125 4.078125 -3.191406 4.078125 -2.890625 L 4.078125 0 L 3.484375 0 L 3.484375 -2.890625 C 3.484375 -3.191406 3.382812 -3.453125 3.1875 -3.671875 C 2.976562 -3.878906 2.734375 -3.984375 2.453125 -3.984375 C 2.160156 -3.984375 1.914062 -3.878906 1.71875 -3.671875 C 1.507812 -3.460938 1.40625 -3.203125 1.40625 -2.890625 L 1.40625 0 L 0.828125 0 L 0.828125 -4.46875 L 1.40625 -4.46875 L 1.40625 -4 C 1.695312 -4.375 2.066406 -4.5625 2.515625 -4.5625 C 2.753906 -4.5625 2.988281 -4.5 3.21875 -4.375 C 3.445312 -4.238281 3.632812 -4.0625 3.78125 -3.84375 C 4.101562 -4.320312 4.546875 -4.5625 5.109375 -4.5625 Z M 5.109375 -4.5625 "/></g></g><g clip-rule="nonzero" clip-path="url(#ca3c38cd7c)"><path style=" stroke:none;fill-rule:nonzero;fill:#2ca988;fill-opacity:1;" d="M 98.90625 68.34375 C 96.167969 68.34375 93.9375 70.574219 93.9375 73.316406 C 93.9375 76.054688 96.167969 78.285156 98.90625 78.285156 C 101.648438 78.285156 103.875 76.054688 103.875 73.316406 C 103.875 70.574219 101.648438 68.34375 98.90625 68.34375 Z M 103.414062 73.089844 L 101.160156 73.089844 C 101.144531 72.316406 101.054688 71.597656 100.902344 70.960938 C 101.355469 70.667969 101.675781 70.28125 101.792969 69.84375 C 102.277344 70.246094 102.660156 70.730469 102.945312 71.296875 C 103.226562 71.859375 103.382812 72.457031 103.414062 73.089844 Z M 99.988281 68.933594 C 100.488281 69.054688 100.957031 69.257812 101.386719 69.542969 C 101.359375 69.910156 101.136719 70.246094 100.78125 70.507812 C 100.582031 69.851562 100.308594 69.308594 99.988281 68.933594 Z M 100.382812 70.742188 C 100.027344 70.910156 99.597656 71.023438 99.132812 71.046875 L 99.132812 68.839844 C 99.609375 69.007812 100.082031 69.691406 100.382812 70.742188 Z M 98.679688 68.839844 L 98.679688 71.046875 C 98.214844 71.023438 97.785156 70.910156 97.429688 70.742188 C 97.730469 69.691406 98.203125 69.007812 98.679688 68.839844 Z M 97.03125 70.507812 C 96.675781 70.246094 96.453125 69.910156 96.425781 69.542969 C 96.859375 69.257812 97.324219 69.054688 97.824219 68.933594 C 97.503906 69.308594 97.230469 69.851562 97.03125 70.507812 Z M 98.679688 71.5 L 98.679688 73.089844 L 97.105469 73.089844 C 97.117188 72.382812 97.195312 71.742188 97.320312 71.183594 C 97.753906 71.371094 98.207031 71.476562 98.679688 71.5 Z M 98.679688 73.539062 L 98.679688 75.128906 C 98.207031 75.152344 97.753906 75.257812 97.320312 75.449219 C 97.195312 74.886719 97.117188 74.246094 97.105469 73.539062 Z M 98.679688 75.582031 L 98.679688 77.789062 C 98.203125 77.621094 97.730469 76.9375 97.429688 75.886719 C 97.785156 75.71875 98.214844 75.609375 98.679688 75.582031 Z M 97.824219 77.695312 C 97.324219 77.574219 96.859375 77.371094 96.425781 77.085938 C 96.453125 76.71875 96.675781 76.382812 97.03125 76.121094 C 97.230469 76.777344 97.503906 77.320312 97.824219 77.695312 Z M 99.132812 77.789062 L 99.132812 75.582031 C 99.597656 75.609375 100.027344 75.71875 100.382812 75.886719 C 100.082031 76.9375 99.609375 77.621094 99.132812 77.789062 Z M 100.78125 76.121094 C 101.136719 76.382812 101.359375 76.71875 101.386719 77.085938 C 100.957031 77.371094 100.488281 77.574219 99.988281 77.695312 C 100.308594 77.320312 100.582031 76.777344 100.78125 76.121094 Z M 99.132812 75.128906 L 99.132812 73.539062 L 100.707031 73.539062 C 100.695312 74.246094 100.617188 74.886719 100.492188 75.449219 C 100.058594 75.257812 99.605469 75.152344 99.132812 75.128906 Z M 99.132812 73.089844 L 99.132812 71.5 C 99.605469 71.476562 100.058594 71.371094 100.492188 71.183594 C 100.617188 71.742188 100.695312 72.382812 100.710938 73.089844 Z M 96.019531 69.84375 C 96.136719 70.28125 96.457031 70.667969 96.910156 70.960938 C 96.757812 71.597656 96.667969 72.316406 96.652344 73.089844 L 94.398438 73.089844 C 94.429688 72.457031 94.585938 71.859375 94.867188 71.296875 C 95.152344 70.730469 95.535156 70.246094 96.019531 69.84375 Z M 94.398438 73.539062 L 96.652344 73.539062 C 96.667969 74.3125 96.757812 75.035156 96.910156 75.667969 C 96.457031 75.960938 96.136719 76.347656 96.019531 76.789062 C 95.535156 76.382812 95.152344 75.898438 94.867188 75.335938 C 94.585938 74.769531 94.429688 74.171875 94.398438 73.539062 Z M 101.792969 76.789062 C 101.675781 76.347656 101.355469 75.960938 100.902344 75.667969 C 101.054688 75.035156 101.144531 74.3125 101.160156 73.539062 L 103.414062 73.539062 C 103.382812 74.171875 103.226562 74.769531 102.945312 75.335938 C 102.660156 75.898438 102.277344 76.382812 101.792969 76.789062 Z M 101.792969 76.789062 "/></g></g></svg>