<svg xmlns="http://www.w3.org/2000/svg" xmlns:xlink="http://www.w3.org/1999/xlink" width="400" zoomAndPan="magnify" viewBox="0 0 300 149.999998" height="200" preserveAspectRatio="xMidYMid meet" version="1.2"><defs><clipPath id="c9a70b954d"><path d="M 143.507812 68.507812 L 156.257812 68.507812 L 156.257812 81.257812 L 143.507812 81.257812 Z M 143.507812 68.507812 "/></clipPath><clipPath id="35ba6e1230"><path d="M 146.746094 72 L 153 72 L 153 78.511719 L 146.746094 78.511719 Z M 146.746094 72 "/></clipPath><clipPath id="b27ab13474"><path d="M 149 71.761719 L 153.496094 71.761719 L 153.496094 76 L 149 76 Z M 149 71.761719 "/></clipPath></defs><g id="dcf5655b05"><g clip-rule="nonzero" clip-path="url(#c9a70b954d)"><path style=" stroke:none;fill-rule:nonzero;fill:#2ca988;fill-opacity:1;" d="M 149.882812 68.84375 C 153.214844 68.84375 155.925781 71.554688 155.925781 74.882812 C 155.925781 78.214844 153.214844 80.925781 149.882812 80.925781 C 146.554688 80.925781 143.84375 78.214844 143.84375 74.882812 C 143.84375 71.554688 146.554688 68.84375 149.882812 68.84375 M 149.882812 68.507812 C 146.363281 68.507812 143.507812 71.363281 143.507812 74.882812 C 143.507812 78.40625 146.363281 81.257812 149.882812 81.257812 C 153.40625 81.257812 156.257812 78.40625 156.257812 74.882812 C 156.257812 71.363281 153.40625 68.507812 149.882812 68.507812 Z M 149.882812 68.507812 "/></g><g clip-rule="nonzero" clip-path="url(#35ba6e1230)"><path style=" stroke:none;fill-rule:nonzero;fill:#2ca988;fill-opacity:1;" d="M 152.023438 76.03125 C 151.867188 75.875 151.714844 75.84375 151.613281 75.847656 C 151.417969 75.855469 151.296875 75.988281 151.292969 75.996094 C 151.121094 76.171875 150.789062 76.40625 150.632812 76.355469 C 150.519531 76.300781 150.015625 75.8125 149.605469 75.386719 C 149.183594 74.980469 148.699219 74.476562 148.648438 74.375 C 148.589844 74.207031 148.824219 73.875 148.996094 73.710938 C 149.011719 73.699219 149.144531 73.578125 149.148438 73.382812 C 149.152344 73.28125 149.125 73.132812 148.964844 72.972656 L 148.191406 72.199219 C 147.902344 71.910156 147.585938 72.019531 147.445312 72.125 C 147 72.507812 146.773438 72.980469 146.765625 73.523438 C 146.75 74.953125 148.28125 76.398438 148.421875 76.53125 L 148.433594 76.542969 C 148.441406 76.550781 148.449219 76.558594 148.453125 76.5625 L 148.464844 76.570312 C 148.566406 76.683594 150.011719 78.230469 151.449219 78.230469 C 151.457031 78.230469 151.464844 78.230469 151.476562 78.230469 C 152.019531 78.226562 152.488281 77.996094 152.882812 77.542969 C 152.976562 77.414062 153.085938 77.09375 152.796875 76.808594 L 152.023438 76.03125 "/></g><g clip-rule="nonzero" clip-path="url(#b27ab13474)"><path style=" stroke:none;fill-rule:nonzero;fill:#2ca988;fill-opacity:1;" d="M 149.855469 71.761719 C 149.714844 71.761719 149.601562 71.875 149.601562 72.015625 C 149.601562 72.152344 149.714844 72.265625 149.855469 72.265625 C 151.449219 72.265625 152.746094 73.5625 152.746094 75.15625 C 152.746094 75.292969 152.859375 75.40625 152.996094 75.40625 C 153.136719 75.40625 153.246094 75.292969 153.246094 75.15625 C 153.246094 73.285156 151.726562 71.761719 149.855469 71.761719 "/></g><path style=" stroke:none;fill-rule:nonzero;fill:#2ca988;fill-opacity:1;" d="M 149.855469 73.34375 C 150.855469 73.34375 151.667969 74.15625 151.667969 75.15625 C 151.667969 75.292969 151.78125 75.40625 151.917969 75.40625 C 152.058594 75.40625 152.171875 75.292969 152.171875 75.15625 C 152.171875 73.878906 151.132812 72.839844 149.855469 72.839844 C 149.714844 72.839844 149.601562 72.953125 149.601562 73.089844 C 149.601562 73.230469 149.714844 73.34375 149.855469 73.34375 "/></g></svg>