<svg xmlns="http://www.w3.org/2000/svg" xmlns:xlink="http://www.w3.org/1999/xlink" width="400" zoomAndPan="magnify" viewBox="0 0 300 149.999998" height="200" preserveAspectRatio="xMidYMid meet" version="1.2"><defs><clipPath id="4f3590b03c"><path d="M 143.507812 68.507812 L 156.257812 68.507812 L 156.257812 81.257812 L 143.507812 81.257812 Z M 143.507812 68.507812 "/></clipPath><clipPath id="4d0b74681d"><path d="M 146.605469 72.542969 L 153.355469 72.542969 L 153.355469 76 L 146.605469 76 Z M 146.605469 72.542969 "/></clipPath><clipPath id="c05f7b552a"><path d="M 146.605469 73 L 153.355469 73 L 153.355469 77.792969 L 146.605469 77.792969 Z M 146.605469 73 "/></clipPath></defs><g id="d7829850cb"><g clip-rule="nonzero" clip-path="url(#4f3590b03c)"><path style=" stroke:none;fill-rule:nonzero;fill:#2ca988;fill-opacity:1;" d="M 149.882812 68.84375 C 153.214844 68.84375 155.925781 71.554688 155.925781 74.882812 C 155.925781 78.214844 153.214844 80.925781 149.882812 80.925781 C 146.554688 80.925781 143.84375 78.214844 143.84375 74.882812 C 143.84375 71.554688 146.554688 68.84375 149.882812 68.84375 M 149.882812 68.507812 C 146.363281 68.507812 143.507812 71.363281 143.507812 74.882812 C 143.507812 78.40625 146.363281 81.257812 149.882812 81.257812 C 153.40625 81.257812 156.257812 78.40625 156.257812 74.882812 C 156.257812 71.363281 153.40625 68.507812 149.882812 68.507812 Z M 149.882812 68.507812 "/></g><g clip-rule="nonzero" clip-path="url(#4d0b74681d)"><path style=" stroke:none;fill-rule:nonzero;fill:#2ca988;fill-opacity:1;" d="M 149.980469 75.246094 L 153.332031 73.183594 C 153.292969 72.996094 153.199219 72.84375 153.054688 72.722656 C 152.90625 72.605469 152.738281 72.542969 152.546875 72.542969 L 147.410156 72.542969 C 147.222656 72.542969 147.050781 72.605469 146.90625 72.722656 C 146.757812 72.84375 146.664062 72.996094 146.625 73.183594 Z M 149.980469 75.246094 "/></g><g clip-rule="nonzero" clip-path="url(#c05f7b552a)"><path style=" stroke:none;fill-rule:nonzero;fill:#2ca988;fill-opacity:1;" d="M 150.140625 75.867188 C 150.03125 75.933594 149.925781 75.933594 149.820312 75.867188 L 146.609375 73.890625 L 146.609375 76.640625 C 146.609375 76.863281 146.6875 77.050781 146.84375 77.210938 C 147 77.367188 147.191406 77.445312 147.410156 77.445312 L 152.546875 77.445312 C 152.769531 77.445312 152.957031 77.367188 153.113281 77.210938 C 153.269531 77.054688 153.347656 76.863281 153.347656 76.644531 L 153.347656 73.890625 Z M 150.140625 75.867188 "/></g></g></svg>