<svg width="22" height="20" viewBox="0 0 22 20" fill="none" xmlns="http://www.w3.org/2000/svg">
<mask id="mask0_1029_16" style="mask-type:luminance" maskUnits="userSpaceOnUse" x="1" y="0" width="20" height="20">
<path d="M1.57422 0.286133H20.0872V19.3639H1.57422V0.286133Z" fill="white"/>
</mask>
<g mask="url(#mask0_1029_16)">
<path d="M10.8307 0.788795C15.6688 0.788795 19.6051 4.84516 19.6051 9.82502C19.6051 14.8107 15.6688 18.8671 10.8307 18.8671C5.99828 18.8671 2.062 14.8107 2.062 9.82502C2.062 4.84516 5.99828 0.788795 10.8307 0.788795ZM10.8307 0.286133C5.72036 0.286133 1.57422 4.55876 1.57422 9.82502C1.57422 15.0971 5.72036 19.3639 10.8307 19.3639C15.9468 19.3639 20.0872 15.0971 20.0872 9.82502C20.0872 4.55876 15.9468 0.286133 10.8307 0.286133Z" fill="#2CA988"/>
</g>
<mask id="mask1_1029_16" style="mask-type:luminance" maskUnits="userSpaceOnUse" x="6" y="6" width="10" height="6">
<path d="M6.07227 6.32422H15.8733V11.497H6.07227V6.32422Z" fill="white"/>
</mask>
<g mask="url(#mask1_1029_16)">
<path d="M10.9737 10.3689L15.8402 7.28278C15.7835 7.00223 15.6473 6.77428 15.4375 6.59308C15.2219 6.41774 14.978 6.32422 14.7001 6.32422H7.24161C6.96936 6.32422 6.7198 6.41774 6.50994 6.59308C6.29441 6.77428 6.15828 7.00223 6.10156 7.28278L10.9737 10.3689Z" fill="#2CA988"/>
</g>
<mask id="mask2_1029_16" style="mask-type:luminance" maskUnits="userSpaceOnUse" x="6" y="7" width="10" height="8">
<path d="M6.07227 7.00781H15.8733V14.1795H6.07227V7.00781Z" fill="white"/>
</mask>
<g mask="url(#mask2_1029_16)">
<path d="M11.2055 11.2983C11.0467 11.3977 10.8935 11.3977 10.7404 11.2983L6.07812 8.34082V12.4556C6.07812 12.7888 6.19156 13.0693 6.41844 13.309C6.64531 13.5428 6.92323 13.6597 7.24086 13.6597H14.6994C15.0227 13.6597 15.2949 13.5428 15.5218 13.309C15.7487 13.0752 15.8621 12.7888 15.8621 12.4615V8.34082L11.2055 11.2983Z" fill="#2CA988"/>
</g>
</svg>
