<svg xmlns="http://www.w3.org/2000/svg" xmlns:xlink="http://www.w3.org/1999/xlink" width="500" zoomAndPan="magnify" viewBox="0 0 375 374.999991" height="500" preserveAspectRatio="xMidYMid meet" version="1.2"><defs><clipPath id="2c0ceaf257"><path d="M 331.136719 195.707031 L 337.5 195.707031 L 337.5 202.066406 L 331.136719 202.066406 Z M 331.136719 195.707031 "/></clipPath><clipPath id="c5f0c9b023"><path d="M 334.320312 195.707031 C 332.5625 195.707031 331.136719 197.128906 331.136719 198.886719 C 331.136719 200.644531 332.5625 202.066406 334.320312 202.066406 C 336.074219 202.066406 337.5 200.644531 337.5 198.886719 C 337.5 197.128906 336.074219 195.707031 334.320312 195.707031 Z M 334.320312 195.707031 "/></clipPath><clipPath id="32a206b544"><path d="M 33.785156 147.242188 L 72.035156 147.242188 L 72.035156 201.992188 L 33.785156 201.992188 Z M 33.785156 147.242188 "/></clipPath></defs><g id="636b17d5cc"><g clip-rule="nonzero" clip-path="url(#2c0ceaf257)"><g clip-rule="nonzero" clip-path="url(#c5f0c9b023)"><path style=" stroke:none;fill-rule:nonzero;fill:#12315c;fill-opacity:1;" d="M 331.136719 195.707031 L 337.5 195.707031 L 337.5 202.066406 L 331.136719 202.066406 Z M 331.136719 195.707031 "/></g></g><g style="fill:#12315c;fill-opacity:1;"><g transform="translate(80.011487, 200.945392)"><path style="stroke:none" d="M 25.046875 -11.296875 L 25.046875 0 L 18.734375 0 L 18.734375 -11.296875 C 18.734375 -13.117188 18.273438 -14.484375 17.359375 -15.390625 C 16.453125 -16.304688 15.34375 -16.765625 14.03125 -16.765625 C 12.625 -16.765625 11.367188 -16.304688 10.265625 -15.390625 C 9.160156 -14.484375 8.609375 -13.117188 8.609375 -11.296875 L 8.609375 0 L 2.234375 0 L 2.234375 -22.625 L 8.609375 -22.625 L 8.609375 -21.0625 C 9.234375 -21.78125 10.128906 -22.300781 11.296875 -22.625 C 12.460938 -22.957031 13.550781 -23.125 14.5625 -23.125 C 16.625 -23.125 18.445312 -22.59375 20.03125 -21.53125 C 21.613281 -20.46875 22.84375 -19.039062 23.71875 -17.25 C 24.601562 -15.457031 25.046875 -13.472656 25.046875 -11.296875 Z M 25.046875 -11.296875 "/></g></g><g style="fill:#12315c;fill-opacity:1;"><g transform="translate(106.988643, 200.945392)"><path style="stroke:none" d="M 1.921875 -10.84375 L 1.921875 -22.625 L 8.296875 -22.625 L 8.296875 -11.375 C 8.296875 -9.738281 8.75 -8.40625 9.65625 -7.375 C 10.570312 -6.34375 11.671875 -5.828125 12.953125 -5.828125 C 13.910156 -5.828125 14.796875 -6 15.609375 -6.34375 C 16.429688 -6.6875 17.101562 -7.269531 17.625 -8.09375 C 18.15625 -8.914062 18.421875 -10.007812 18.421875 -11.375 L 18.421875 -22.625 L 24.734375 -22.625 L 24.734375 0 L 18.421875 0 L 18.421875 -1.609375 C 17.765625 -0.890625 16.816406 -0.359375 15.578125 -0.015625 C 14.335938 0.328125 13.175781 0.5 12.09375 0.5 C 10.125 0.5 8.367188 -0.015625 6.828125 -1.046875 C 5.296875 -2.078125 4.09375 -3.453125 3.21875 -5.171875 C 2.351562 -6.890625 1.921875 -8.78125 1.921875 -10.84375 Z M 1.921875 -10.84375 "/></g></g><g style="fill:#12315c;fill-opacity:1;"><g transform="translate(133.965798, 200.945392)"><path style="stroke:none" d="M 24.328125 -11.296875 L 24.328125 0 L 17.96875 0 L 17.96875 -11.296875 C 17.96875 -13.234375 17.507812 -14.628906 16.59375 -15.484375 C 15.6875 -16.335938 14.515625 -16.765625 13.078125 -16.765625 C 12.304688 -16.765625 11.578125 -16.515625 10.890625 -16.015625 C 10.203125 -15.523438 9.648438 -14.867188 9.234375 -14.046875 C 8.816406 -13.222656 8.609375 -12.304688 8.609375 -11.296875 L 8.609375 0 L 2.234375 0 L 2.234375 -22.625 L 8.609375 -22.625 L 8.609375 -21.0625 C 9.109375 -21.6875 9.910156 -22.1875 11.015625 -22.5625 C 12.128906 -22.9375 13.175781 -23.125 14.15625 -23.125 C 15.832031 -23.125 17.363281 -22.785156 18.75 -22.109375 C 20.144531 -21.441406 21.171875 -20.582031 21.828125 -19.53125 C 22.546875 -20.488281 23.378906 -21.226562 24.328125 -21.75 C 25.285156 -22.28125 26.253906 -22.640625 27.234375 -22.828125 C 28.222656 -23.023438 29.109375 -23.125 29.890625 -23.125 C 32.222656 -23.125 34.148438 -22.59375 35.671875 -21.53125 C 37.191406 -20.46875 38.328125 -19.039062 39.078125 -17.25 C 39.828125 -15.457031 40.203125 -13.472656 40.203125 -11.296875 L 40.203125 0 L 33.875 0 L 33.875 -11.296875 C 33.875 -13.023438 33.414062 -14.367188 32.5 -15.328125 C 31.59375 -16.285156 30.5 -16.765625 29.21875 -16.765625 C 27.84375 -16.765625 26.679688 -16.222656 25.734375 -15.140625 C 24.796875 -14.066406 24.328125 -12.785156 24.328125 -11.296875 Z M 24.328125 -11.296875 "/></g></g><g style="fill:#12315c;fill-opacity:1;"><g transform="translate(176.089598, 200.945392)"><path style="stroke:none" d="M 18.46875 -8.109375 L 23.53125 -4.21875 C 22.570312 -2.78125 21.179688 -1.632812 19.359375 -0.78125 C 17.535156 0.0703125 15.609375 0.5 13.578125 0.5 C 11.878906 0.5 10.289062 0.191406 8.8125 -0.421875 C 7.332031 -1.035156 6.023438 -1.882812 4.890625 -2.96875 C 3.753906 -4.0625 2.867188 -5.316406 2.234375 -6.734375 C 1.609375 -8.160156 1.296875 -9.679688 1.296875 -11.296875 C 1.296875 -13.472656 1.828125 -15.457031 2.890625 -17.25 C 3.953125 -19.039062 5.367188 -20.46875 7.140625 -21.53125 C 8.921875 -22.59375 10.890625 -23.125 13.046875 -23.125 C 14.921875 -23.125 16.617188 -22.75 18.140625 -22 C 19.671875 -21.25 20.972656 -20.269531 22.046875 -19.0625 C 23.117188 -17.851562 23.878906 -16.546875 24.328125 -15.140625 L 11.703125 -6.09375 C 11.992188 -5.976562 12.296875 -5.90625 12.609375 -5.875 C 12.921875 -5.84375 13.242188 -5.828125 13.578125 -5.828125 C 14.535156 -5.828125 15.460938 -6.003906 16.359375 -6.359375 C 17.253906 -6.722656 17.957031 -7.304688 18.46875 -8.109375 Z M 7.75 -11.296875 C 7.75 -10.691406 7.8125 -10.195312 7.9375 -9.8125 L 16.171875 -15.6875 C 15.722656 -16.007812 15.238281 -16.269531 14.71875 -16.46875 C 14.195312 -16.664062 13.640625 -16.765625 13.046875 -16.765625 C 11.578125 -16.765625 10.328125 -16.25 9.296875 -15.21875 C 8.265625 -14.1875 7.75 -12.878906 7.75 -11.296875 Z M 7.75 -11.296875 "/></g></g><g style="fill:#12315c;fill-opacity:1;"><g transform="translate(201.722382, 200.945392)"><path style="stroke:none" d="M 15.1875 -23.03125 L 15.1875 -16.453125 C 14.59375 -16.660156 13.921875 -16.765625 13.171875 -16.765625 C 11.953125 -16.765625 10.882812 -16.304688 9.96875 -15.390625 C 9.0625 -14.484375 8.609375 -13.117188 8.609375 -11.296875 L 8.609375 0 L 2.234375 0 L 2.234375 -22.625 L 8.609375 -22.625 L 8.609375 -21.0625 C 9.296875 -21.8125 10.085938 -22.34375 10.984375 -22.65625 C 11.878906 -22.96875 12.757812 -23.125 13.625 -23.125 C 13.894531 -23.125 14.148438 -23.125 14.390625 -23.125 C 14.628906 -23.125 14.894531 -23.09375 15.1875 -23.03125 Z M 15.1875 -23.03125 "/></g></g><g style="fill:#12315c;fill-opacity:1;"><g transform="translate(217.496402, 200.945392)"><path style="stroke:none" d="M 5.375 -26.625 C 4.394531 -26.625 3.535156 -26.976562 2.796875 -27.6875 C 2.066406 -28.40625 1.703125 -29.257812 1.703125 -30.25 C 1.703125 -31.144531 2.066406 -31.953125 2.796875 -32.671875 C 3.535156 -33.390625 4.394531 -33.75 5.375 -33.75 C 6.445312 -33.75 7.347656 -33.394531 8.078125 -32.6875 C 8.816406 -31.988281 9.1875 -31.175781 9.1875 -30.25 C 9.1875 -29.257812 8.816406 -28.40625 8.078125 -27.6875 C 7.347656 -26.976562 6.445312 -26.625 5.375 -26.625 Z M 8.609375 -22.625 L 8.609375 0 L 2.234375 0 L 2.234375 -22.625 Z M 8.609375 -22.625 "/></g></g><g style="fill:#2ca988;fill-opacity:1;"><g transform="translate(228.347415, 200.945392)"><path style="stroke:none" d="M 10.390625 -7.984375 L 8.609375 -6.28125 L 8.609375 0 L 2.234375 0 L 2.234375 -33.390625 L 8.609375 -33.390625 L 8.609375 -13.625 L 18.234375 -22.625 L 26.125 -22.625 L 14.75 -12.046875 L 26.625 0 L 18.5 0 Z M 10.390625 -7.984375 "/></g></g><g style="fill:#2ca988;fill-opacity:1;"><g transform="translate(254.697194, 200.945392)"><path style="stroke:none" d="M 15.1875 -23.03125 L 15.1875 -16.453125 C 14.59375 -16.660156 13.921875 -16.765625 13.171875 -16.765625 C 11.953125 -16.765625 10.882812 -16.304688 9.96875 -15.390625 C 9.0625 -14.484375 8.609375 -13.117188 8.609375 -11.296875 L 8.609375 0 L 2.234375 0 L 2.234375 -22.625 L 8.609375 -22.625 L 8.609375 -21.0625 C 9.296875 -21.8125 10.085938 -22.34375 10.984375 -22.65625 C 11.878906 -22.96875 12.757812 -23.125 13.625 -23.125 C 13.894531 -23.125 14.148438 -23.125 14.390625 -23.125 C 14.628906 -23.125 14.894531 -23.09375 15.1875 -23.03125 Z M 15.1875 -23.03125 "/></g></g><g style="fill:#2ca988;fill-opacity:1;"><g transform="translate(270.471214, 200.945392)"><path style="stroke:none" d="M 17.921875 -22.625 L 24.28125 -22.625 L 24.28125 0 L 17.921875 0 L 17.921875 -1.609375 C 17.441406 -0.953125 16.664062 -0.4375 15.59375 -0.0625 C 14.519531 0.3125 13.457031 0.5 12.40625 0.5 C 10.351562 0.5 8.488281 -0.0351562 6.8125 -1.109375 C 5.132812 -2.191406 3.796875 -3.617188 2.796875 -5.390625 C 1.796875 -7.171875 1.296875 -9.140625 1.296875 -11.296875 C 1.296875 -13.472656 1.800781 -15.457031 2.8125 -17.25 C 3.832031 -19.039062 5.1875 -20.46875 6.875 -21.53125 C 8.5625 -22.59375 10.40625 -23.125 12.40625 -23.125 C 13.425781 -23.125 14.476562 -22.914062 15.5625 -22.5 C 16.65625 -22.082031 17.441406 -21.601562 17.921875 -21.0625 Z M 13.046875 -5.828125 C 14.535156 -5.828125 15.765625 -6.332031 16.734375 -7.34375 C 17.703125 -8.363281 18.1875 -9.679688 18.1875 -11.296875 C 18.1875 -12.878906 17.703125 -14.1875 16.734375 -15.21875 C 15.765625 -16.25 14.535156 -16.765625 13.046875 -16.765625 C 11.578125 -16.765625 10.328125 -16.25 9.296875 -15.21875 C 8.265625 -14.1875 7.75 -12.878906 7.75 -11.296875 C 7.75 -9.679688 8.265625 -8.363281 9.296875 -7.34375 C 10.328125 -6.332031 11.578125 -5.828125 13.046875 -5.828125 Z M 13.046875 -5.828125 "/></g></g><g style="fill:#2ca988;fill-opacity:1;"><g transform="translate(297.000253, 200.945392)"><path style="stroke:none" d="M 15.328125 -33.703125 L 15.328125 -27.15625 C 13.859375 -27.15625 12.675781 -26.765625 11.78125 -25.984375 C 10.882812 -25.210938 10.4375 -24.273438 10.4375 -23.171875 L 10.4375 -22.625 L 14.875 -22.625 L 14.875 -16.765625 L 10.4375 -16.765625 L 10.4375 0 L 4.078125 0 L 4.078125 -16.765625 L 0.984375 -16.765625 L 0.984375 -22.625 L 4.078125 -22.625 L 4.078125 -22.9375 C 4.078125 -25.03125 4.582031 -26.882812 5.59375 -28.5 C 6.613281 -30.113281 7.984375 -31.382812 9.703125 -32.3125 C 11.421875 -33.238281 13.296875 -33.703125 15.328125 -33.703125 Z M 15.328125 -33.703125 "/></g></g><g style="fill:#2ca988;fill-opacity:1;"><g transform="translate(312.953523, 200.945392)"><path style="stroke:none" d="M 15.5 -16.765625 L 10.125 -16.765625 L 10.125 -9.546875 C 10.125 -8.265625 10.628906 -7.320312 11.640625 -6.71875 C 12.660156 -6.125 13.90625 -5.828125 15.375 -5.828125 L 15.375 0.5 C 13.132812 0.5 11.140625 0.0859375 9.390625 -0.734375 C 7.640625 -1.554688 6.265625 -2.710938 5.265625 -4.203125 C 4.265625 -5.703125 3.765625 -7.421875 3.765625 -9.359375 L 3.765625 -16.765625 L 0.359375 -16.765625 L 0.359375 -22.625 L 3.765625 -22.625 L 3.765625 -25.59375 L 10.125 -30.203125 L 10.125 -22.625 L 15.5 -22.625 Z M 15.5 -16.765625 "/></g></g><path style=" stroke:none;fill-rule:nonzero;fill:#2ca988;fill-opacity:1;" d="M 55.078125 187.265625 L 41.832031 174.003906 L 55.082031 160.738281 L 63.835938 160.738281 L 50.585938 174.003906 L 63.828125 187.265625 Z M 55.078125 187.265625 "/><g clip-rule="nonzero" clip-path="url(#32a206b544)"><path style=" stroke:none;fill-rule:nonzero;fill:#2ca988;fill-opacity:1;" d="M 72.039062 147.257812 L 72.039062 188.574219 C 72.039062 192.109375 70.660156 195.421875 68.164062 197.917969 C 65.664062 200.417969 62.339844 201.785156 58.804688 201.785156 L 49.261719 201.785156 L 49.261719 195.601562 L 58.804688 195.601562 C 62.683594 195.601562 65.855469 192.453125 65.855469 188.574219 L 65.855469 147.257812 Z M 47.019531 153.441406 L 56.5625 153.441406 L 56.5625 147.257812 L 47.019531 147.257812 C 43.488281 147.257812 40.160156 148.632812 37.664062 151.132812 C 35.167969 153.628906 33.785156 156.949219 33.785156 160.480469 L 33.785156 201.785156 L 39.96875 201.785156 L 39.96875 160.480469 C 39.96875 156.605469 43.140625 153.441406 47.019531 153.441406 Z M 47.019531 153.441406 "/></g></g></svg>