<svg width="22" height="20" viewBox="0 0 22 20" fill="none" xmlns="http://www.w3.org/2000/svg">
<mask id="mask0_1029_33" style="mask-type:luminance" maskUnits="userSpaceOnUse" x="1" y="0" width="20" height="20">
<path d="M1.26172 0.286133H20.3867V19.3639H1.26172V0.286133Z" fill="white"/>
</mask>
<g mask="url(#mask0_1029_33)">
<path d="M10.8242 0.788795C15.8223 0.788795 19.8887 4.84516 19.8887 9.82502C19.8887 14.8107 15.8223 18.8671 10.8242 18.8671C5.83203 18.8671 1.76562 14.8107 1.76562 9.82502C1.76562 4.84516 5.83203 0.788795 10.8242 0.788795ZM10.8242 0.286133C5.54492 0.286133 1.26172 4.55876 1.26172 9.82502C1.26172 15.0971 5.54492 19.3639 10.8242 19.3639C16.1094 19.3639 20.3867 15.0971 20.3867 9.82502C20.3867 4.55876 16.1094 0.286133 10.8242 0.286133Z" fill="#2CA988"/>
</g>
<mask id="mask1_1029_33" style="mask-type:luminance" maskUnits="userSpaceOnUse" x="6" y="5" width="10" height="11">
<path d="M6.11914 5.51172H15.5V15.2552H6.11914V5.51172Z" fill="white"/>
</mask>
<g mask="url(#mask1_1029_33)">
<path d="M14.0334 11.5434C13.799 11.3096 13.5705 11.2629 13.4181 11.2687C13.1252 11.2804 12.9435 11.4791 12.9377 11.4908C12.6799 11.7538 12.1818 12.1045 11.9474 12.0285C11.7775 11.9467 11.0217 11.2161 10.4064 10.579C9.77362 9.97114 9.04705 9.21714 8.97088 9.06518C8.88299 8.81384 9.23455 8.31703 9.49237 8.07154C9.5158 8.05401 9.71502 7.87282 9.72088 7.58057C9.72674 7.4286 9.68572 7.20649 9.44549 6.96685L8.28533 5.80956C7.85174 5.37704 7.37713 5.5407 7.16619 5.69851C6.49823 6.27131 6.15838 6.97854 6.14666 7.79099C6.12323 9.93022 8.4201 12.0928 8.63104 12.2916L8.64862 12.3091C8.66033 12.3208 8.67205 12.3325 8.67791 12.3383L8.69549 12.35C8.84783 12.5195 11.0158 14.8341 13.1721 14.8341C13.1838 14.8341 13.1955 14.8341 13.2131 14.8341C14.0275 14.8283 14.7306 14.4834 15.3224 13.8054C15.4631 13.6125 15.6271 13.1332 15.1935 12.7066L14.0334 11.5434Z" fill="#2CA988"/>
</g>
<mask id="mask2_1029_33" style="mask-type:luminance" maskUnits="userSpaceOnUse" x="9" y="5" width="8" height="7">
<path d="M9.5 5.15527H16.2441V11.497H9.5V5.15527Z" fill="white"/>
</mask>
<g mask="url(#mask2_1029_33)">
<path d="M10.7832 5.15527C10.5723 5.15527 10.4023 5.32478 10.4023 5.53519C10.4023 5.73976 10.5723 5.90927 10.7832 5.90927C13.1738 5.90927 15.1191 7.84978 15.1191 10.2345C15.1191 10.4391 15.2891 10.6086 15.4941 10.6086C15.7051 10.6086 15.8691 10.4391 15.8691 10.2345C15.8691 7.43479 13.5898 5.15527 10.7832 5.15527Z" fill="#2CA988"/>
</g>
<path d="M10.7832 7.52255C12.2832 7.52255 13.502 8.73829 13.502 10.2346C13.502 10.4392 13.6719 10.6087 13.877 10.6087C14.0879 10.6087 14.2578 10.4392 14.2578 10.2346C14.2578 8.3233 12.6992 6.76855 10.7832 6.76855C10.5723 6.76855 10.4023 6.93806 10.4023 7.14263C10.4023 7.35305 10.5723 7.52255 10.7832 7.52255Z" fill="#2CA988"/>
</svg>
