<svg width="169" height="26" viewBox="0 0 169 26" fill="none" xmlns="http://www.w3.org/2000/svg">
<rect width="169" height="26" fill="white"/>
<mask id="mask0_1029_51" style="mask-type:luminance" maskUnits="userSpaceOnUse" x="0" y="1" width="164" height="19">
<path d="M0.0917969 1.87402H163.961V19.9475H0.0917969V1.87402Z" fill="white"/>
</mask>
<g mask="url(#mask0_1029_51)">
<mask id="mask1_1029_51" style="mask-type:luminance" maskUnits="userSpaceOnUse" x="0" y="1" width="164" height="19">
<path d="M10.6999 1.87402H153.353C156.167 1.87402 158.862 2.82963 160.855 4.52388C162.843 6.21813 163.961 8.51713 163.961 10.9131C163.961 13.309 162.843 15.608 160.855 17.3023C158.862 18.9965 156.167 19.9475 153.353 19.9475H10.6999C7.88584 19.9475 5.1906 18.9965 3.20293 17.3023C1.20986 15.608 0.0917969 13.309 0.0917969 10.9131C0.0917969 8.51713 1.20986 6.21813 3.20293 4.52388C5.1906 2.82963 7.88584 1.87402 10.6999 1.87402Z" fill="white"/>
</mask>
<g mask="url(#mask1_1029_51)">
<path d="M10.6999 1.87402L153.353 1.87402C156.167 1.87402 158.862 2.82964 160.855 4.52389C162.843 6.21814 163.961 8.51715 163.961 10.9131C163.961 13.3091 162.843 15.6081 160.855 17.3023C158.862 18.9966 156.167 19.9476 153.353 19.9476L10.6999 19.9476C7.88584 19.9476 5.1906 18.9966 3.20293 17.3023C1.20986 15.6081 0.0917969 13.3091 0.0917969 10.9131C0.0917969 8.51715 1.20986 6.21814 3.20293 4.52389C5.1906 2.82964 7.88584 1.87402 10.6999 1.87402Z" stroke="#2CA988" stroke-width="1.99616"/>
</g>
</g>
<mask id="mask2_1029_51" style="mask-type:luminance" maskUnits="userSpaceOnUse" x="155" y="10" width="12" height="13">
<path d="M155.865 10.6357H166.927V22.4539H155.865V10.6357Z" fill="white"/>
</mask>
<g mask="url(#mask2_1029_51)">
<mask id="mask3_1029_51" style="mask-type:luminance" maskUnits="userSpaceOnUse" x="156" y="10" width="11" height="13">
<path d="M156 11.794L164.329 10.543L166.462 20.9254L158.134 22.1765L156 11.794Z" fill="white"/>
</mask>
<g mask="url(#mask3_1029_51)">
<mask id="mask4_1029_51" style="mask-type:luminance" maskUnits="userSpaceOnUse" x="156" y="10" width="11" height="13">
<path d="M156 11.794L164.329 10.543L166.462 20.9254L158.134 22.1765L156 11.794Z" fill="white"/>
</mask>
<g mask="url(#mask4_1029_51)">
<path d="M165.511 16.7754L156.405 11.8034C156.324 11.7573 156.221 11.7619 156.145 11.8034C156.064 11.8496 156.027 11.9281 156.043 12.0065L157.879 20.9394C157.895 21.0225 157.971 21.0872 158.063 21.1056C158.16 21.1195 158.257 21.0872 158.311 21.0179L160.18 18.6081L162.508 21.3226C162.562 21.3872 162.654 21.4195 162.74 21.4057C162.773 21.4011 162.8 21.3918 162.827 21.3734L164.393 20.4916C164.453 20.4593 164.485 20.4085 164.501 20.3531C164.512 20.2977 164.496 20.2423 164.453 20.1962L162.162 17.634L165.425 17.1447C165.522 17.1308 165.598 17.0662 165.614 16.9877C165.635 16.9046 165.592 16.8215 165.511 16.7754Z" fill="white"/>
</g>
</g>
</g>
<mask id="mask5_1029_51" style="mask-type:luminance" maskUnits="userSpaceOnUse" x="157" y="14" width="12" height="11">
<path d="M157.248 14.1816H168.31V24.818H157.248V14.1816Z" fill="white"/>
</mask>
<g mask="url(#mask5_1029_51)">
<mask id="mask6_1029_51" style="mask-type:luminance" maskUnits="userSpaceOnUse" x="158" y="13" width="11" height="12">
<path d="M158.047 14.3663L166.376 13.1152L168.515 23.4977L160.18 24.7488L158.047 14.3663Z" fill="white"/>
</mask>
<g mask="url(#mask6_1029_51)">
<mask id="mask7_1029_51" style="mask-type:luminance" maskUnits="userSpaceOnUse" x="158" y="13" width="11" height="12">
<path d="M158.047 14.3663L166.376 13.1152L168.515 23.4977L160.18 24.7488L158.047 14.3663Z" fill="white"/>
</mask>
<g mask="url(#mask7_1029_51)">
<path d="M167.558 19.3478L158.451 14.3759C158.37 14.3343 158.273 14.3343 158.192 14.3759C158.116 14.4221 158.073 14.5005 158.089 14.579L159.926 23.5119C159.942 23.595 160.018 23.6596 160.109 23.6781C160.207 23.6919 160.304 23.6596 160.358 23.5904L162.227 21.1806L164.555 23.8997C164.609 23.9597 164.7 23.992 164.787 23.9782C164.819 23.9735 164.846 23.9643 164.873 23.9458L166.445 23.0641C166.499 23.0318 166.537 22.981 166.548 22.9256C166.559 22.8702 166.542 22.8148 166.499 22.7686L164.209 20.2065L167.471 19.7172C167.569 19.7033 167.644 19.6387 167.666 19.5602C167.682 19.4771 167.639 19.394 167.558 19.3478Z" fill="#2CA988"/>
</g>
</g>
</g>
<path d="M33.2044 8.91016H34.0686L31.9513 14.1914H31.0655L29.3371 9.85192L27.6303 14.1914H26.7229L24.584 8.91016H25.4914L27.1982 13.342L28.9482 8.91016H29.726L31.476 13.3789L33.2044 8.91016Z" fill="#12315C"/>
<path d="M43.0111 8.91016H43.8753L41.758 14.1914H40.8722L39.1438 9.85192L37.4369 14.1914H36.5295L34.3906 8.91016H35.298L37.0048 13.342L38.7549 8.91016H39.5326L41.2827 13.3789L43.0111 8.91016Z" fill="#12315C"/>
<path d="M52.8197 8.91016H53.6839L51.5666 14.1914H50.6808L48.9523 9.85192L47.2455 14.1914H46.3381L44.1992 8.91016H45.1066L46.8134 13.342L48.5635 8.91016H49.3412L51.0913 13.3789L52.8197 8.91016Z" fill="#12315C"/>
<path d="M55.0639 14.3026C54.9019 14.3026 54.7669 14.2472 54.6534 14.1365C54.5238 14.0395 54.459 13.9241 54.459 13.7856C54.459 13.6517 54.5238 13.5271 54.6534 13.4163C54.7669 13.3193 54.9019 13.2686 55.0639 13.2686C55.2206 13.2686 55.3664 13.3193 55.496 13.4163C55.6095 13.5271 55.6689 13.6517 55.6689 13.7856C55.6689 13.9241 55.6095 14.0395 55.496 14.1365C55.3664 14.2472 55.2206 14.3026 55.0639 14.3026Z" fill="#12315C"/>
<path d="M59.8652 8.7998C60.481 8.7998 61.0157 8.9937 61.464 9.37225C61.8961 9.74157 62.1121 10.194 62.1121 10.7203V14.1919H61.2911V10.7572C61.2911 10.3879 61.1453 10.0832 60.859 9.8339C60.5566 9.58922 60.1947 9.46458 59.7788 9.46458C59.3467 9.46458 58.9848 9.58461 58.6985 9.81543C58.3961 10.0647 58.234 10.3648 58.2232 10.7203V14.1919H57.4238V8.9106H58.2232V9.40918C58.6661 9.00293 59.2171 8.7998 59.8652 8.7998Z" fill="#12315C"/>
<path d="M66.384 14.3022C65.7035 14.3022 65.1525 14.1175 64.7204 13.7482C64.2883 13.3789 64.0723 12.8988 64.0723 12.3079V8.91016H64.8933V12.234C64.8933 12.6403 65.0337 12.9727 65.3254 13.2312C65.5954 13.4897 65.9519 13.619 66.384 13.619C66.8269 13.619 67.1942 13.4897 67.4859 13.2312C67.7559 12.9727 67.8964 12.6403 67.8964 12.234V8.91016H68.6958V12.3079C68.6958 12.8988 68.4851 13.3789 68.0692 13.7482C67.6371 14.1175 67.0754 14.3022 66.384 14.3022Z" fill="#12315C"/>
<path d="M76.7011 8.7998C77.3168 8.7998 77.8461 8.9937 78.2782 9.37225C78.7211 9.76926 78.948 10.2355 78.948 10.7757V14.1919H78.1486V10.7757C78.1486 10.4202 78.0028 10.1109 77.7165 9.85236C77.441 9.60769 77.1007 9.48304 76.7011 9.48304C76.3122 9.48304 75.9719 9.60769 75.6856 9.85236C75.4101 10.1109 75.2751 10.4202 75.2751 10.7757V14.1919H74.4541V10.7757C74.4541 10.4202 74.3137 10.1109 74.0436 9.85236C73.752 9.60769 73.4171 9.48304 73.0282 9.48304C72.6231 9.48304 72.2828 9.60769 72.0127 9.85236C71.7211 10.1017 71.5806 10.4063 71.5806 10.7757V14.1919H70.7812V8.9106H71.5806V9.46458C71.9803 9.0214 72.4935 8.7998 73.1146 8.7998C73.4441 8.7998 73.7682 8.87367 74.0868 9.0214C74.4001 9.18297 74.6594 9.39071 74.8646 9.64924C75.3075 9.08603 75.9233 8.7998 76.7011 8.7998Z" fill="#12315C"/>
<path d="M87.0827 11.4958V11.6436H81.487C81.514 12.1975 81.7571 12.6684 82.2216 13.047C82.6807 13.4301 83.237 13.6194 83.8852 13.6194C84.2849 13.6194 84.663 13.5363 85.0086 13.3609C85.3543 13.2039 85.6406 12.9823 85.8728 12.6961L86.6074 12.9731C86.332 13.3794 85.9593 13.7025 85.484 13.9333C84.9924 14.1826 84.4577 14.3026 83.8852 14.3026C83.0048 14.3026 82.2486 14.0349 81.6166 13.4901C80.9793 12.9639 80.666 12.3176 80.666 11.5512C80.666 10.7895 80.9793 10.1432 81.6166 9.6123C82.2486 9.07218 83.0048 8.7998 83.8852 8.7998C84.7602 8.7998 85.511 9.05833 86.1321 9.57537C86.7371 10.0924 87.0503 10.7341 87.0827 11.4958ZM83.8852 9.48304C83.3342 9.48304 82.8481 9.62615 82.416 9.90776C81.9947 10.194 81.7139 10.5541 81.5734 10.9972H86.1753C86.0295 10.5679 85.7486 10.2032 85.3327 9.90776C84.9114 9.62615 84.4307 9.48304 83.8852 9.48304Z" fill="#12315C"/>
<path d="M91.4633 8.7998C91.6794 8.7998 91.8954 8.83674 92.1115 8.9106V9.6123C91.8792 9.52921 91.6632 9.48304 91.4633 9.48304C90.988 9.48304 90.5829 9.64924 90.2535 9.98162C89.9078 10.3279 89.7349 10.748 89.7349 11.2373V14.1919H88.9355V8.9106H89.7349V9.81543C90.1076 9.14142 90.6856 8.7998 91.4633 8.7998Z" fill="#12315C"/>
<path d="M93.8686 7.19327C93.6958 7.19327 93.5499 7.14711 93.4365 7.04554C93.3177 6.9486 93.2637 6.82395 93.2637 6.67623C93.2637 6.5285 93.3177 6.40847 93.4365 6.30691C93.5499 6.20996 93.6958 6.15918 93.8686 6.15918C94.0253 6.15918 94.1711 6.20996 94.3007 6.30691C94.4141 6.40847 94.4736 6.5285 94.4736 6.67623C94.4736 6.82395 94.4141 6.9486 94.3007 7.04554C94.1711 7.14711 94.0253 7.19327 93.8686 7.19327ZM93.4581 14.1918V8.9106H94.2575V14.1918H93.4581Z" fill="#12315C"/>
<path d="M101.406 14.1914H100.282L97.3658 11.44V14.1914H96.5664V6.26953H97.3658V11.0707L100.066 8.91016H101.147L98.23 11.2553L101.406 14.1914Z" fill="#12315C"/>
<path d="M105.166 8.7998C105.383 8.7998 105.599 8.83674 105.815 8.9106V9.6123C105.582 9.52921 105.366 9.48304 105.166 9.48304C104.691 9.48304 104.286 9.64924 103.957 9.98162C103.611 10.3279 103.438 10.748 103.438 11.2373V14.1919H102.639V8.9106H103.438V9.81543C103.811 9.14142 104.389 8.7998 105.166 8.7998Z" fill="#12315C"/>
<path d="M112.303 8.9106H113.102V14.1919H112.303V13.2501C111.725 13.9518 110.899 14.3026 109.818 14.3026C108.965 14.3026 108.23 14.0349 107.615 13.4901C106.993 12.95 106.686 12.3037 106.686 11.5512C106.686 10.8034 106.993 10.157 107.615 9.6123C108.23 9.07218 108.965 8.7998 109.818 8.7998C110.899 8.7998 111.725 9.15066 112.303 9.85236V8.9106ZM109.905 13.6194C110.564 13.6194 111.136 13.4163 111.612 13.01C112.071 12.6038 112.303 12.1191 112.303 11.5512C112.303 10.988 112.071 10.4987 111.612 10.0924C111.136 9.68617 110.564 9.48304 109.905 9.48304C109.24 9.48304 108.673 9.68617 108.198 10.0924C107.733 10.4987 107.507 10.988 107.507 11.5512C107.507 12.1191 107.733 12.6038 108.198 13.01C108.673 13.4163 109.24 13.6194 109.905 13.6194Z" fill="#12315C"/>
<path d="M118.266 8.9106V9.59384H116.581V14.1918H115.781V9.59384H114.744V8.9106H115.781V7.65492C115.781 7.2025 115.938 6.8378 116.256 6.56543C116.559 6.29767 116.959 6.15918 117.466 6.15918C117.812 6.15918 118.071 6.21458 118.244 6.32537V7.02708C118.028 6.8932 117.796 6.82395 117.553 6.82395C117.261 6.82395 117.034 6.91167 116.861 7.08248C116.672 7.2579 116.581 7.47949 116.581 7.74725V8.9106H118.266Z" fill="#12315C"/>
<path d="M122.319 8.91078V9.55708H120.979V14.192H120.158V9.55708H118.797V8.91078H120.158V7.00879H120.979V8.91078H122.319Z" fill="#12315C"/>
<path d="M123.851 14.3026C123.689 14.3026 123.554 14.2472 123.441 14.1365C123.311 14.0395 123.246 13.9241 123.246 13.7856C123.246 13.6517 123.311 13.5271 123.441 13.4163C123.554 13.3193 123.689 13.2686 123.851 13.2686C124.008 13.2686 124.154 13.3193 124.283 13.4163C124.397 13.5271 124.456 13.6517 124.456 13.7856C124.456 13.9241 124.397 14.0395 124.283 14.1365C124.154 14.2472 124.008 14.3026 123.851 14.3026Z" fill="#12315C"/>
<path d="M128.977 14.3026C128.097 14.3026 127.34 14.0349 126.708 13.4901C126.071 12.9639 125.758 12.3176 125.758 11.5512C125.758 10.7895 126.071 10.1432 126.708 9.6123C127.34 9.07218 128.097 8.7998 128.977 8.7998C129.609 8.7998 130.187 8.94292 130.705 9.22452C131.224 9.51998 131.618 9.90314 131.894 10.3694L131.137 10.6649C130.932 10.3094 130.646 10.0278 130.273 9.81543C129.884 9.59384 129.452 9.48304 128.977 9.48304C128.296 9.48304 127.729 9.68155 127.27 10.074C126.806 10.4802 126.579 10.9742 126.579 11.5512C126.579 12.1329 126.806 12.6176 127.27 13.01C127.729 13.4163 128.296 13.6194 128.977 13.6194C129.452 13.6194 129.884 13.5086 130.273 13.287C130.646 13.0793 130.932 12.7977 131.137 12.4376L131.894 12.733C131.618 13.2039 131.224 13.5779 130.705 13.8595C130.187 14.1549 129.609 14.3026 128.977 14.3026Z" fill="#12315C"/>
<path d="M136.248 14.3026C135.368 14.3026 134.612 14.0349 133.98 13.4901C133.343 12.9639 133.029 12.3176 133.029 11.5512C133.029 10.7895 133.343 10.1432 133.98 9.6123C134.612 9.07218 135.368 8.7998 136.248 8.7998C137.14 8.7998 137.896 9.07218 138.517 9.6123C139.133 10.1432 139.446 10.7895 139.446 11.5512C139.446 12.3176 139.133 12.9639 138.517 13.4901C137.896 14.0349 137.14 14.3026 136.248 14.3026ZM136.248 13.6194C136.907 13.6194 137.48 13.4163 137.955 13.01C138.414 12.6038 138.647 12.1191 138.647 11.5512C138.647 10.988 138.414 10.4987 137.955 10.0924C137.48 9.68617 136.907 9.48304 136.248 9.48304C135.568 9.48304 135.001 9.68617 134.542 10.0924C134.077 10.4987 133.85 10.988 133.85 11.5512C133.85 12.1191 134.077 12.6038 134.542 13.01C135.001 13.4163 135.568 13.6194 136.248 13.6194Z" fill="#12315C"/>
<path d="M147.23 8.7998C147.846 8.7998 148.375 8.9937 148.808 9.37225C149.25 9.76926 149.477 10.2355 149.477 10.7757V14.1919H148.678V10.7757C148.678 10.4202 148.532 10.1109 148.246 9.85236C147.97 9.60769 147.63 9.48304 147.23 9.48304C146.841 9.48304 146.501 9.60769 146.215 9.85236C145.939 10.1109 145.804 10.4202 145.804 10.7757V14.1919H144.983V10.7757C144.983 10.4202 144.843 10.1109 144.573 9.85236C144.281 9.60769 143.946 9.48304 143.557 9.48304C143.152 9.48304 142.812 9.60769 142.542 9.85236C142.25 10.1017 142.11 10.4063 142.11 10.7757V14.1919H141.311V8.9106H142.11V9.46458C142.51 9.0214 143.023 8.7998 143.644 8.7998C143.973 8.7998 144.297 8.87367 144.616 9.0214C144.929 9.18297 145.189 9.39071 145.394 9.64924C145.837 9.08603 146.453 8.7998 147.23 8.7998Z" fill="#12315C"/>
<mask id="mask8_1029_51" style="mask-type:luminance" maskUnits="userSpaceOnUse" x="5" y="5" width="14" height="12">
<path d="M5.06055 5.13281H18.8014V16.8817H5.06055V5.13281Z" fill="white"/>
</mask>
<g mask="url(#mask8_1029_51)">
<path d="M11.931 5.13281C8.14468 5.13281 5.06055 7.76882 5.06055 11.0096C5.06055 14.2457 8.14468 16.8817 11.931 16.8817C15.7227 16.8817 18.8014 14.2457 18.8014 11.0096C18.8014 7.76882 15.7227 5.13281 11.931 5.13281ZM18.164 10.7418H15.0475C15.0259 9.82777 14.9017 8.97834 14.691 8.22585C15.3176 7.87962 15.7605 7.42259 15.9225 6.90554C16.5923 7.38104 17.1216 7.95348 17.5159 8.62287C17.9048 9.28764 18.1208 9.99396 18.164 10.7418ZM13.4271 5.8299C14.1185 5.97301 14.7666 6.21307 15.3608 6.55007C15.323 6.98402 15.0151 7.38104 14.5236 7.69034C14.2481 6.91477 13.87 6.27308 13.4271 5.8299ZM13.9727 7.96733C13.4811 8.16584 12.887 8.29972 12.2442 8.32741V5.71911C12.9032 5.91761 13.5568 6.7255 13.9727 7.96733ZM11.6177 5.71911V8.32741C10.9749 8.29972 10.3808 8.16584 9.88929 7.96733C10.3052 6.7255 10.9587 5.91761 11.6177 5.71911ZM9.33836 7.69034C8.84684 7.38104 8.53897 6.98402 8.50116 6.55007C9.1007 6.21307 9.74346 5.97301 10.4348 5.8299C9.99191 6.27308 9.61383 6.91477 9.33836 7.69034ZM11.6177 8.86293V10.7418H9.44098C9.45719 9.90625 9.56521 9.14915 9.73805 8.48899C10.3376 8.71058 10.9641 8.83523 11.6177 8.86293ZM11.6177 11.2727V13.1516C10.9641 13.1793 10.3376 13.304 9.73805 13.5302C9.56521 12.8654 9.45719 12.1083 9.44098 11.2727H11.6177ZM11.6177 13.6871V16.2955C10.9587 16.0969 10.3052 15.2891 9.88929 14.0472C10.3808 13.8487 10.9749 13.7195 11.6177 13.6871ZM10.4348 16.1847C9.74346 16.0415 9.1007 15.8015 8.50116 15.4645C8.53897 15.0305 8.84684 14.6335 9.33836 14.3242C9.61383 15.0998 9.99191 15.7415 10.4348 16.1847ZM12.2442 16.2955V13.6871C12.887 13.7195 13.4811 13.8487 13.9727 14.0472C13.5568 15.2891 12.9032 16.0969 12.2442 16.2955ZM14.5236 14.3242C15.0151 14.6335 15.323 15.0305 15.3608 15.4645C14.7666 15.8015 14.1185 16.0415 13.4271 16.1847C13.87 15.7415 14.2481 15.0998 14.5236 14.3242ZM12.2442 13.1516V11.2727H14.421C14.4048 12.1083 14.2967 12.8654 14.1239 13.5302C13.5244 13.304 12.8978 13.1793 12.2442 13.1516ZM12.2442 10.7418V8.86293C12.8978 8.83523 13.5244 8.71058 14.1239 8.48899C14.2967 9.14915 14.4048 9.90625 14.4264 10.7418H12.2442ZM7.93943 6.90554C8.10147 7.42259 8.54437 7.87962 9.17092 8.22585C8.96027 8.97834 8.83604 9.82777 8.81444 10.7418H5.6979C5.74111 9.99396 5.95716 9.28764 6.34605 8.62287C6.74034 7.95348 7.26967 7.38104 7.93943 6.90554ZM5.6979 11.2727H8.81444C8.83604 12.1868 8.96027 13.0408 9.17092 13.7887C8.54437 14.1349 8.10147 14.592 7.93943 15.1136C7.26967 14.6335 6.74034 14.0611 6.34605 13.3963C5.95716 12.7269 5.74111 12.0206 5.6979 11.2727ZM15.9225 15.1136C15.7605 14.592 15.3176 14.1349 14.691 13.7887C14.9017 13.0408 15.0259 12.1868 15.0475 11.2727H18.164C18.1208 12.0206 17.9048 12.7269 17.5159 13.3963C17.1216 14.0611 16.5923 14.6335 15.9225 15.1136Z" fill="#2CA988"/>
</g>
</svg>
